<svg xmlns="http://www.w3.org/2000/svg" viewBox="0 0 800 1000" role="img" aria-label="Emplacement photo — Photo de face">
  <rect width="800" height="1000" fill="#F5F5F5"/>
  <rect x="1" y="1" width="798" height="998" fill="none" stroke="#D9D9D9" stroke-width="2"/>
  <circle cx="400.0" cy="460.0" r="224.00000000000003" fill="#FFFFFF" stroke="#D9D9D9" stroke-width="2"/>
  <circle cx="400.0" cy="460.0" r="211" fill="none" stroke="#D9D9D9" stroke-width="1"/>
  <line x1="400" y1="281" x2="400" y2="258" stroke="#666666" stroke-width="2.5"/>
  <line x1="496" y1="293" x2="501" y2="285" stroke="#666666" stroke-width="1.5"/>
  <line x1="567" y1="364" x2="575" y2="359" stroke="#666666" stroke-width="1.5"/>
  <line x1="579" y1="460" x2="602" y2="460" stroke="#666666" stroke-width="2.5"/>
  <line x1="567" y1="556" x2="575" y2="561" stroke="#666666" stroke-width="1.5"/>
  <line x1="496" y1="627" x2="501" y2="635" stroke="#666666" stroke-width="1.5"/>
  <line x1="400" y1="639" x2="400" y2="662" stroke="#666666" stroke-width="2.5"/>
  <line x1="304" y1="627" x2="299" y2="635" stroke="#666666" stroke-width="1.5"/>
  <line x1="233" y1="556" x2="225" y2="561" stroke="#666666" stroke-width="1.5"/>
  <line x1="221" y1="460" x2="198" y2="460" stroke="#666666" stroke-width="2.5"/>
  <line x1="233" y1="364" x2="225" y2="359" stroke="#666666" stroke-width="1.5"/>
  <line x1="304" y1="293" x2="299" y2="285" stroke="#666666" stroke-width="1.5"/>
  <line x1="400.0" y1="460.0" x2="308" y2="397" stroke="#111111" stroke-width="4" stroke-linecap="round"/>
  <line x1="400.0" y1="460.0" x2="530" y2="365" stroke="#111111" stroke-width="3" stroke-linecap="round"/>
  <circle cx="400.0" cy="460.0" r="4" fill="#111111"/>
  <text x="400.0" y="728" text-anchor="middle" font-family="Georgia, serif" font-size="26" letter-spacing="10" fill="#111111">VELIRA</text>
  <text x="24" y="952" font-family="ui-monospace, Menlo, monospace" font-size="17" fill="#666666">/images/products/velira-36-ardoise/01-face.svg</text>
  <text x="24" y="978" font-family="ui-monospace, Menlo, monospace" font-size="15" fill="#666666">Photo de face — remplacer par votre photo (4:5)</text>
</svg>
